<svg width="20" height="20" viewBox="0 0 20 20" fill="none" xmlns="http://www.w3.org/2000/svg">
<path d="M20 10C20 15.5228 15.5228 20 10 20C4.47715 20 0 15.5228 0 10C0 4.47715 4.47715 0 10 0C15.5228 0 20 4.47715 20 10Z" fill="#D39C23"/>
<path fill-rule="evenodd" clip-rule="evenodd" d="M10 18.6667C14.7865 18.6667 18.6667 14.7865 18.6667 10C18.6667 5.21353 14.7865 1.33333 10 1.33333C5.21353 1.33333 1.33333 5.21353 1.33333 10C1.33333 14.7865 5.21353 18.6667 10 18.6667ZM10 20C15.5228 20 20 15.5228 20 10C20 4.47715 15.5228 0 10 0C4.47715 0 0 4.47715 0 10C0 15.5228 4.47715 20 10 20Z" fill="white" fill-opacity="0.2" style="mix-blend-mode:plus-lighter"/>
<path d="M7.33621 7.49716C7.66684 7.72555 7.85222 8.06089 7.75093 8.53944L7.09732 11.8548C7.00176 12.395 6.45326 12.7502 5.88373 12.6487C5.3467 12.5508 4.95109 12.0723 5.05812 11.4977L5.42888 9.57809L5.19763 9.67779C4.76953 9.86086 4.26499 9.67778 4.07387 9.26812C3.88276 8.85846 4.07387 8.37811 4.50197 8.19322L6.22774 7.46634C6.63482 7.27239 7.02278 7.29777 7.33621 7.49716Z" fill="#FFE477"/>
<path d="M7.99638 7.33762C8.2219 7.5932 8.48672 7.91404 8.35676 8.67536L8.00319 10.4717L8.06817 11.9182C8.08155 12.433 8.34147 12.665 8.80014 12.665H9.95066C10.3157 12.665 10.4628 12.4004 10.61 12.0668L11.4872 10.0131L11.577 11.9744C11.5847 12.4094 11.8179 12.6668 12.2383 12.6668H13.5494C13.922 12.6668 14.0768 12.4529 14.2412 12.0705L15.9154 8.137C16.0969 7.72915 15.9918 7.33581 15.5389 7.33581H14.696C14.3826 7.33581 14.1743 7.43731 14.0501 7.72009L12.9206 10.3557L12.8174 8.00468C12.8002 7.50438 12.5479 7.33762 12.2555 7.33762H11.4012C11.0629 7.33762 10.8661 7.46269 10.761 7.7074L9.62576 10.3575L9.52447 7.94848C9.50918 7.49713 9.35247 7.33762 8.97024 7.33762H8.23253C8.21856 7.33762 7.99638 7.33762 7.99638 7.33762Z" fill="#FFE477"/>
</svg>